<svg version="1" xmlns="http://www.w3.org/2000/svg" width="933.333" height="933.333" viewBox="0 0 700.000000 700.000000"><path d="M0 350v350h700V0H0v350zm250.5-142.5c44.4 6.3 72 29.4 79 65.9.8 4.3 1.5 11.3 1.5 15.7v7.9h-60.6l-1.1-8.4c-1.4-10.1-4.5-16.7-10.6-22.3-7.5-6.9-17.9-10.2-32.2-10.3-14.7 0-24.8 4.3-34.7 14.9-12.4 13.3-16.7 28-16.8 57.1 0 10.2-.3 24.2-.7 31.2l-.6 12.8H110v-30.6c0-22.6.4-33.4 1.6-41.2 3.8-25.5 13.8-45.9 31.3-63.2 16.1-16 37.1-26.4 60.1-29.9 9.1-1.4 36.7-1.2 47.5.4zm273.7 22.7c5.3 16.1 42.2 130 45.2 139.5l.7 2.3H505.4l-11-36.2c-6.1-19.9-11.5-36.3-12-36.5-.5-.2-5.8 16-11.9 36l-11 36.2-32.4.3c-25.7.2-32.2 0-31.9-1 .3-.7 1.2-3.6 2.1-6.3.9-2.8 11-34.3 22.6-70 11.5-35.8 22.4-69.4 24.1-74.8l3.1-9.7h70.5l6.6 20.2zM337 356.5V372H223v-31h114v15.5z"/></svg>